# xmcd
#
# Track frame offsets:
#	150
#	13613
#	29668
#	41042
#	57473
#	69290
#	83925
#	98314
#	109522
#	121434
#	133478
#	146179
#	160727
#
# Disc length: 2300 seconds
#
# Revision: 1
# Processed by: cddbd v1.5.2PL0 Copyright (c) Steve Scherf et al.
# Submitted via: audiograbber 1.83.01
#
DISCID=b408fa0d
DTITLE=Lotte Riisholt - Country With Love
DYEAR=2016
DGENRE=Country
TTITLE0=Rosegarden
TTITLE1=Together Again
TTITLE2=Act Naturally
TTITLE3=To Know Him Is To Love Him
TTITLE4=Blue Moon Of Kentucky
TTITLE5=Crazy
TTITLE6=Oh Lonesome Me
TTITLE7=Just Walk On By
TTITLE8=Blue Eyes Crying In The Rain
TTITLE9=Hey Good Looking
TTITLE10=Stand By Your Man
TTITLE11=Jambalaya
TTITLE12=Cowboy Yodel Song
EXTD=
EXTT0=
EXTT1=
EXTT2=
EXTT3=
EXTT4=
EXTT5=
EXTT6=
EXTT7=
EXTT8=
EXTT9=
EXTT10=
EXTT11=
EXTT12=
PLAYORDER=
